<?xml version="1.0" encoding="UTF-8" standalone="no"?>
<!-- Created with Inkscape (http://www.inkscape.org/) -->

<svg
   version="1.1"
   id="svg1"
   width="602"
   height="602"
   viewBox="0 0 602 601.99999"
   xmlns="http://www.w3.org/2000/svg"
   xmlns:svg="http://www.w3.org/2000/svg">
  <defs
     id="defs1" />
  <g
     id="g1"
     transform="matrix(1.0725723,0,0,1,-535.93557,-185.19518)"
     style="fill:#4a5d4e;fill-opacity:1">
    <path
       id="path1"
       style="fill:#4a5d4e;fill-opacity:1"
       d="m 800.62689,184.98186 -55.01953,55.77734 c -30.2605,30.67799 -62.73396,63.6543 -72.16406,73.2793 l -17.14649,17.5 -0.0195,35.5 c -0.0115,19.90998 0.46343,39.4524 1.08203,44.5 3.8314,31.26531 21.02128,57.89058 45.20117,70.01172 l 6.81055,3.41406 -6.65625,3.01758 c -18.3615,8.32552 -32.51175,23.53471 -40.53515,43.57227 -5.3268,13.30292 -5.85554,18.87196 -5.89454,62.00195 l -0.0351,39.01953 24.25,23.04492 c 33.2129,31.56212 32.27451,30.75543 34.44531,29.52149 0.9935,-0.56476 11.92989,-11.16433 24.30469,-23.55469 l 22.5,-22.52735 -16.75,-16.77148 -16.75,-16.77148 v -22.0586 c 0,-28.87316 1.68679,-34.84547 13.30469,-47.14258 10.329,-10.9328 20.81771,-15.44174 36.19531,-15.55859 15.8633,-0.12055 26.62275,3.86841 37.43945,13.88281 3.36,3.1108 7.6493,8.41246 9.5332,11.78125 5.627,10.06212 6.52735,15.38232 6.52735,38.55469 v 20.51953 l -53.73633,53.77149 -53.73828,53.77148 -56.51172,-0.006 -56.51367,-0.006 -21.25,-20.58594 -21.25,-20.58398 v -51.78711 -51.78906 l -20.75,-18.00977 c -11.4125,-9.90578 -26.6,-23.2269 -33.75,-29.60156 -7.15,-6.37466 -13.34859,-11.59817 -13.77539,-11.60938 -0.427,-0.0112 -0.6517,40.14102 -0.5,89.22852 l 0.27539,89.25 2.3164,5.73633 c 1.2741,3.15454 4.10457,8.41217 6.28907,11.68359 5.1518,7.71483 68.70875,69.36402 76.12695,73.8418 11.9734,7.22751 14.22448,7.63141 45.76758,8.21289 24.4477,0.45067 91.73418,0.53849 113.36328,0.14844 l 6.86328,-0.12305 76.95313,-76.75 76.95117,-76.75 -0.35742,-43 c -0.346,-41.68272 -0.42575,-43.21453 -2.65625,-50 -7.2863,-22.16521 -23.06398,-41.01006 -42.63868,-50.92773 -3.8376,-1.94436 -7.73982,-3.54439 -8.66992,-3.55469 -0.93,-0.0103 -1.96869,-0.46758 -2.30859,-1.01758 -0.3399,-0.55 0.0976,-1 0.9707,-1 2.5657,0 13.5832,-5.93161 19.5293,-10.51367 15.2603,-11.75949 25.98042,-27.98572 31.70312,-47.98633 1.4765,-5.16032 1.76434,-12.07981 2.05664,-49.44336 l 0.33985,-43.44336 -27.29297,-27.30664 -27.29297,-27.30664 -24.75586,24.74219 c -13.6164,13.60823 -24.75781,25.20134 -24.75781,25.76172 0,0.56038 7.425,8.43359 16.5,17.49609 l 16.5,16.47656 v 21.05078 c 0,29.14486 -2.163,36.45914 -14.5,49.02735 -27.4418,27.95614 -77.39817,15.77192 -86.91797,-21.19922 -1.1796,-4.58119 -1.59486,-11.32293 -1.63086,-26.5 l -0.0469,-20.35547 54.29883,-53.72852 54.29688,-53.72851 54.5,0.0195 54.5,0.0195 23.25976,22.70899 23.25977,22.70898 -0.01,53.17578 -0.01,53.17578 16.24997,14.38477 c 25.9636,22.98419 32.5147,28.75101 42.6778,37.56836 l 9.5722,8.30469 0.2618,-89.80469 c 0.1755,-60.14913 -0.086,-91.49478 -0.793,-94.92383 -0.5807,-2.81584 -2.612,-8.36779 -4.5137,-12.33594 -3.2205,-6.7201 -5.8652,-9.59046 -38.5664,-41.8789 -19.30969,-19.06601 -37.01937,-35.91485 -39.35547,-37.44141 -2.336,-1.52655 -6.89972,-3.77655 -10.14062,-5 -5.8888,-2.22299 -5.94572,-2.22593 -86.45508,-2.50391 z m -35.60156,0.002 -82.63672,0.27735 c -81.0455,0.27228 -82.74467,0.31825 -88.13867,2.36718 -3.025,1.14905 -7.69626,3.45806 -10.38086,5.13086 -2.6846,1.6728 -20.76323,18.8972 -40.17383,38.27735 -37.5088,37.4499 -39.67296,40.09951 -42.91406,52.54297 -1.3175,5.0582 -1.52347,17.46935 -1.48047,88.91992 l 0.0488,83.03906 8.27344,7 c 4.54979,3.85 30.27988,25.9 57.17968,49 26.8998,23.1 52.06909,44.58646 55.92969,47.74805 l 7.01758,5.75 1.67187,-13.25 c 2.7684,-21.93331 9.21046,-39.45867 19.09766,-51.9668 l 3.88867,-4.92187 -3.32812,-2.82618 c -11.2057,-9.51749 -23.99392,-20.47942 -50.69922,-43.46093 l -30.13086,-25.92969 v -60.5625 -60.5625 l 22.24219,-22.25977 22.24218,-22.25781 39.00782,-0.0703 c 21.4546,-0.0387 39.77283,-0.37616 40.70703,-0.75 0.9342,-0.37384 17.64512,-16.55433 37.13672,-35.95703 z m 164.1875,229.08008 c -0.001,2.1e-4 -0.003,0.002 -0.004,0.002 -0.30171,0.12048 -1.05986,4.44395 -1.69922,9.72266 -2.8153,23.2441 -9.74639,40.52215 -21.59179,53.82813 -2.6578,2.98556 -4.6828,5.83056 -4.5,6.32226 0.1828,0.49169 20.46471,18.50059 45.07031,40.02149 26.39746,23.08818 44.96622,40.04102 45.29492,41.35351 0.3066,1.2234 0.42362,25.50876 0.26172,53.9668 l -0.29492,51.74219 -20.99024,21.00781 -20.99023,21.00781 h -44.51563 -44.51367 l -36.96679,36.97852 -36.96875,36.97851 19.97265,0.27149 c 10.9851,0.1495 48.88511,0.17273 84.2207,0.0508 70.73766,-0.24415 70.72403,-0.24429 82.57813,-6.54297 3.2038,-1.70232 9.7288,-6.69021 14.5,-11.08594 17.95528,-16.5422 62.39518,-61.32868 65.22268,-65.73047 1.6183,-2.5194 3.9538,-7.2444 5.1894,-10.5 l 2.2481,-5.91992 0.291,-80.04687 0.291,-80.04688 -26.7832,-22.92383 c -14.731,-12.60879 -41.81098,-35.98754 -60.17578,-51.95312 -37.48106,-32.5844 -44.37587,-38.46741 -45.13867,-38.50391 -0.002,-1.1e-4 -0.005,-4.2e-4 -0.008,0 z" />
  </g>
</svg>
